<svg xmlns="http://www.w3.org/2000/svg" viewBox="0 0 1440 320">
          <path
            fill="white"
            fill-opacity="1"
            d="M0,64L26.7,64C53.3,64,107,64,160,80C213.3,96,267,128,320,117.3C373.3,107,427,53,480,32C533.3,11,587,21,640,53.3C693.3,85,747,139,800,170.7C853.3,203,907,213,960,229.3C1013.3,245,1067,267,1120,229.3C1173.3,192,1227,96,1280,80C1333.3,64,1387,128,1413,160L1440,192L1440,320L1413.3,320C1386.7,320,1333,320,1280,320C1226.7,320,1173,320,1120,320C1066.7,320,1013,320,960,320C906.7,320,853,320,800,320C746.7,320,693,320,640,320C586.7,320,533,320,480,320C426.7,320,373,320,320,320C266.7,320,213,320,160,320C106.7,320,53,320,27,320L0,320Z"
          ></path>
        </svg>